<svg width="27" height="27" viewBox="0 0 27 27" fill="none" xmlns="http://www.w3.org/2000/svg">
<path fill-rule="evenodd" clip-rule="evenodd" d="M7.81586 8.68663C7.29651 9.59012 7.29651 10.8011 7.29651 13.2255C7.29651 15.6494 7.29651 16.861 7.81586 17.7645C8.16033 18.3642 8.65784 18.8617 9.25755 19.2062C10.161 19.7255 11.372 19.7255 13.7965 19.7255C16.2203 19.7255 17.4319 19.7255 18.3354 19.2062C18.9351 18.8617 19.4326 18.3642 19.7771 17.7645C20.2964 16.861 20.2964 15.65 20.2964 13.2255C20.2964 10.8017 20.2964 9.59012 19.7771 8.68663C19.4326 8.08692 18.9351 7.58941 18.3354 7.24493C17.4319 6.72559 16.221 6.72559 13.7965 6.72559C11.3726 6.72559 10.161 6.72559 9.25755 7.24493C8.65784 7.58941 8.16033 8.08692 7.81586 8.68663ZM16.5213 18.3865C15.8732 18.445 15.0315 18.4463 13.7965 18.4463C12.5615 18.4463 11.7197 18.445 11.0717 18.3865C10.4412 18.33 10.1194 18.2266 9.89389 18.0973C9.49049 17.8655 9.15582 17.5309 8.9241 17.1275C8.7941 16.9019 8.6914 16.5802 8.63485 15.9497C8.57635 15.3016 8.57505 14.4599 8.57505 13.2249C8.57505 11.9899 8.57635 11.1482 8.63485 10.5001C8.6914 9.86962 8.79475 9.54787 8.9241 9.32232C9.15582 8.91891 9.49049 8.58425 9.89389 8.35253C10.1194 8.22253 10.4412 8.11983 11.0717 8.06328C11.7197 8.00478 12.5615 8.00348 13.7965 8.00348C15.0315 8.00348 15.8732 8.00478 16.5213 8.06328C17.1518 8.11983 17.4735 8.22318 17.6984 8.35253C18.102 8.58458 18.4368 8.91932 18.6688 9.32232C18.7982 9.54787 18.9015 9.86962 18.9581 10.5001C19.0166 11.1482 19.0179 11.9899 19.0179 13.2249C19.0179 14.4599 19.0166 15.3016 18.9581 15.9497C18.9015 16.5802 18.7982 16.9019 18.6688 17.1268C18.4372 17.5305 18.1025 17.8653 17.6991 18.0973C17.4735 18.2266 17.1518 18.33 16.5213 18.3865ZM16.3107 9.83582C16.3107 9.60404 16.4027 9.38176 16.5666 9.21786C16.7305 9.05397 16.9528 8.9619 17.1846 8.9619C17.4164 8.9619 17.6386 9.05397 17.8025 9.21786C17.9664 9.38176 18.0585 9.60404 18.0585 9.83582C18.0585 10.0675 17.9665 10.2897 17.8026 10.4535C17.6388 10.6174 17.4166 10.7094 17.1849 10.7094C16.9532 10.7094 16.731 10.6174 16.5672 10.4535C16.4033 10.2897 16.3113 10.0675 16.3113 9.83582H16.3107ZM13.7965 9.83582C13.3514 9.83582 12.9107 9.92348 12.4995 10.0938C12.0883 10.2641 11.7147 10.5138 11.4 10.8285C11.0853 11.1432 10.8357 11.5168 10.6654 11.928C10.4951 12.3391 10.4074 12.7798 10.4074 13.2249C10.4074 13.67 10.4951 14.1107 10.6654 14.5218C10.8357 14.933 11.0853 15.3066 11.4 15.6213C11.7147 15.936 12.0883 16.1857 12.4995 16.356C12.9107 16.5263 13.3514 16.614 13.7965 16.614C14.6954 16.614 15.5575 16.2569 16.1931 15.6212C16.8288 14.9856 17.1859 14.1235 17.1859 13.2246C17.1859 12.3256 16.8288 11.4635 16.1931 10.8279C15.5575 10.1923 14.6954 9.83582 13.7965 9.83582ZM11.7724 13.2255C11.7724 12.9597 11.8247 12.6965 11.9265 12.451C12.0282 12.2054 12.1773 11.9823 12.3652 11.7943C12.5532 11.6063 12.7763 11.4573 13.0219 11.3555C13.2675 11.2538 13.5307 11.2015 13.7965 11.2015C14.0623 11.2015 14.3255 11.2538 14.5711 11.3555C14.8166 11.4573 15.0398 11.6063 15.2277 11.7943C15.4157 11.9823 15.5648 12.2054 15.6665 12.451C15.7682 12.6965 15.8206 12.9597 15.8206 13.2255C15.8206 13.7624 15.6073 14.2772 15.2277 14.6568C14.8481 15.0364 14.3333 15.2496 13.7965 15.2496C13.2597 15.2496 12.7448 15.0364 12.3652 14.6568C11.9856 14.2772 11.7724 13.7624 11.7724 13.2255Z" fill="#7F7F8A"/>
</svg>
