<svg width="27" height="27" viewBox="0 0 27 27" fill="none" xmlns="http://www.w3.org/2000/svg">
<g clip-path="url(#clip0_34_688)">
<path d="M21.0891 16.8345C19.0035 16.4913 18.0636 14.355 18.0255 14.2643C18.0226 14.2585 18.0206 14.2526 18.0167 14.2468C17.9105 14.0303 17.8851 13.8519 17.9436 13.7163C18.0577 13.4492 18.4945 13.3107 18.7831 13.2191C18.867 13.1927 18.946 13.1674 19.0113 13.142C19.296 13.0299 19.4988 12.908 19.6334 12.7705C19.7933 12.6058 19.8245 12.4478 19.8225 12.3454C19.8176 12.0958 19.6265 11.8735 19.3214 11.7653C19.219 11.7234 19.101 11.7009 18.982 11.7009C18.9011 11.7009 18.7802 11.7117 18.6661 11.7653C18.4224 11.8794 18.204 11.9418 18.0158 11.9505C17.9163 11.9457 17.8461 11.9242 17.8003 11.9037C17.8061 11.8062 17.812 11.7058 17.8188 11.6024L17.8217 11.5576C17.889 10.5016 17.9719 9.18825 17.6228 8.40821C17.3839 7.87389 17.0632 7.41465 16.6683 7.04218C16.3377 6.73017 15.9536 6.47666 15.5265 6.28945C14.7845 5.96184 14.0922 5.91309 13.7451 5.91309H13.7441C13.7305 5.91309 13.7178 5.91309 13.7061 5.91309C13.6096 5.91406 13.4526 5.91601 13.438 5.91601C13.0918 5.91601 12.3986 5.96476 11.6546 6.29238C11.2285 6.47958 10.8463 6.73212 10.5167 7.04413C10.1238 7.4166 9.80398 7.87487 9.56607 8.40724C9.21701 9.1863 9.29989 10.4997 9.36619 11.5547V11.5566C9.37302 11.6697 9.38082 11.7877 9.38764 11.9028C9.33694 11.9252 9.25406 11.9505 9.13218 11.9505C8.93522 11.9505 8.70121 11.8881 8.43698 11.7643C8.35897 11.7282 8.27025 11.7097 8.17274 11.7097C8.01576 11.7097 7.84903 11.7555 7.7057 11.8404C7.52434 11.9466 7.40734 12.0958 7.37516 12.2625C7.35468 12.3718 7.35566 12.5892 7.59747 12.8095C7.73105 12.9305 7.92606 13.0426 8.17859 13.142C8.24489 13.1684 8.32387 13.1927 8.40675 13.2191C8.69536 13.3107 9.13316 13.4492 9.24724 13.7163C9.30476 13.8519 9.27941 14.0303 9.17313 14.2468C9.17021 14.2526 9.16728 14.2585 9.16533 14.2643C9.13803 14.3267 8.8894 14.8874 8.37945 15.4792C8.08986 15.8156 7.77103 16.0974 7.43171 16.3158C7.01732 16.583 6.56978 16.7565 6.10078 16.8335C5.9165 16.8638 5.78487 17.0276 5.79559 17.2138C5.79852 17.2674 5.81119 17.3211 5.83362 17.3727V17.3737C5.9087 17.5482 6.08128 17.6955 6.36209 17.8252C6.70531 17.9841 7.21818 18.1177 7.88803 18.222C7.92216 18.2863 7.95726 18.4472 7.98163 18.5574C8.00699 18.6744 8.03331 18.7953 8.07134 18.923C8.11229 19.0615 8.21759 19.2273 8.48963 19.2273C8.59298 19.2273 8.71096 19.2039 8.84844 19.1775C9.0493 19.1385 9.32426 19.0849 9.6665 19.0849C9.85664 19.0849 10.0536 19.1015 10.2515 19.1346C10.6337 19.198 10.9633 19.4301 11.3445 19.6992C11.9023 20.0931 12.5341 20.5387 13.4994 20.5387C13.5257 20.5387 13.552 20.5377 13.5784 20.5358C13.6096 20.5377 13.6495 20.5387 13.6905 20.5387C14.6558 20.5387 15.2876 20.0931 15.8453 19.7002L15.8463 19.6992C16.2276 19.431 16.5571 19.199 16.9393 19.1356C17.1373 19.1025 17.3342 19.0859 17.5244 19.0859C17.852 19.0859 18.1113 19.1278 18.3424 19.1727C18.4935 19.2019 18.6105 19.2165 18.7012 19.2165H18.71H18.7188C18.9177 19.2165 19.0639 19.1073 19.1195 18.9172C19.1566 18.7914 19.1829 18.6744 19.2092 18.5545C19.2316 18.4511 19.2687 18.2854 19.3019 18.221C19.9717 18.1157 20.4846 17.9831 20.8278 17.8242C21.1076 17.6945 21.2802 17.5473 21.3553 17.3737C21.3777 17.322 21.3914 17.2684 21.3943 17.2128C21.405 17.0285 21.2734 16.8638 21.0891 16.8345Z" fill="#7F7F8A"/>
</g>
<defs>
<clipPath id="clip0_34_688">
<rect width="15.5999" height="15.5999" fill="white" transform="translate(5.7966 5.42529)"/>
</clipPath>
</defs>
</svg>
