<svg width="27" height="27" viewBox="0 0 27 27" fill="none" xmlns="http://www.w3.org/2000/svg">
<g clip-path="url(#clip0_34_683)">
<path d="M20.7785 9.50878C20.6967 8.8257 20.0529 8.17069 19.3794 8.08294C15.2723 7.57262 11.1191 7.57262 7.0133 8.08294C6.33921 8.1705 5.69547 8.8257 5.61358 9.50878C5.32363 12.0122 5.32363 14.4396 5.61358 16.9425C5.69547 17.6256 6.33921 18.2812 7.0133 18.3683C11.1191 18.8787 15.2724 18.8787 19.3794 18.3683C20.0529 18.2814 20.6967 17.6256 20.7785 16.9425C21.0685 14.4398 21.0685 12.0122 20.7785 9.50878ZM11.896 15.8261V10.626L15.796 13.2261L11.896 15.8261Z" fill="#7F7F8A"/>
</g>
<defs>
<clipPath id="clip0_34_683">
<rect width="15.5999" height="15.5999" fill="white" transform="translate(5.39673 5.42529)"/>
</clipPath>
</defs>
</svg>
